<?xml version="1.0" standalone="no"?><!DOCTYPE svg PUBLIC "-//W3C//DTD SVG 1.1//EN" "http://www.w3.org/Graphics/SVG/1.1/DTD/svg11.dtd"><svg t="1591328038303" class="icon" viewBox="0 0 1024 1024" version="1.1" xmlns="http://www.w3.org/2000/svg" p-id="883" width="32" height="32" xmlns:xlink="http://www.w3.org/1999/xlink"><defs><style type="text/css"></style></defs><path d="M840.6 337.8c-16.5-18.9-40.4-29.7-65.4-29.7H603.3s-32.5 0-32.5 32.5v341.3s0 16.3 16.3 16.3h325.1s16.3 0 16.3-16.3V501.1c0-40.6-14.7-79.9-41.5-110.4l-46.4-52.9z m-35.5 284.7H663.8c-8.3 0-15-6.7-15-15s6.7-15 15-15h141.3c8.3 0 15 6.7 15 15s-6.7 15-15 15z m0-88.3H663.8c-8.3 0-15-6.7-15-15s6.7-15 15-15h141.3c8.3 0 15 6.7 15 15 0 8.2-6.7 15-15 15z m-6.7-96.1v-97.5l97.5 97.5h-97.5z" p-id="884" fill="#ffffff"></path><path d="M160.4 923.9c-27.9 0-52.8-19.1-62.1-47.5-1.1-3.3-1.6-6.7-1.6-10.2V733.8c0-32.6 21.6-66.2 50.3-78.2 58.9-26.1 120.5-46.8 183.1-61.7l12.2-2.9-10.1-7.3c-51.9-37.3-83-98.7-83-164.2v-122c0-109.9 85.5-199.2 190.7-199.2 105.2 0 190.7 89.4 190.7 199.2v121.9c0 78-44.2 149.3-112.6 181.5l-3.7 1.7 0.5 4.5 0.5 2.2c0.2 18.1-13.3 32.3-29.9 32.3h-36.8c-119.9 0-277 71.5-278.5 72.2-6.4 2.7-13.2 12.8-13.2 20v126.1l364 0.9c16.6 0 30.1 14.2 30.1 31.5 0 17.4-13.5 31.5-30.1 31.5H160.4z m279.3-762.6c-72 0-130.6 61.1-130.6 136.2v121.9c0 75.1 58.6 136.1 130.6 136.1s130.6-61.1 130.6-136.1V297.5c0-75.1-58.5-136.2-130.6-136.2z" p-id="885" fill="#ffffff"></path></svg>