<?xml version="1.0" encoding="UTF-8"?>
<svg width="30px" height="30px" viewBox="0 0 30 30" version="1.1" xmlns="http://www.w3.org/2000/svg" xmlns:xlink="http://www.w3.org/1999/xlink">
    <!-- Generator: Sketch 64 (93537) - https://sketch.com -->
    <title>形状结合</title>
    <desc>Created with Sketch.</desc>
    <g id="已确认" stroke="none" stroke-width="1" fill="none" fill-rule="evenodd">
        <g id="1.1" transform="translate(-1035.000000, -118.000000)" fill="#FFFFFF" fill-rule="nonzero">
            <path d="M1052.38058,133.1875 C1059.53237,134.329241 1065,140.526786 1065,148 L1065,148 L1035,148 C1035,140.526786 1040.46763,134.329241 1047.61942,133.1875 L1047.61942,133.1875 L1050,135.56808 Z M1050,135.578125 L1047.43192,143.289062 L1050,145.857143 L1052.56808,143.292411 L1050,135.578125 Z M1050,118 C1054.14214,118 1057.5,121.357864 1057.5,125.5 C1057.5,129.642136 1054.14214,133 1050,133 C1045.85786,133 1042.5,129.642136 1042.5,125.5 C1042.5,121.357864 1045.85786,118 1050,118 Z" id="形状结合"></path>
        </g>
    </g>
</svg>