<?xml version="1.0" standalone="no"?><!DOCTYPE svg PUBLIC "-//W3C//DTD SVG 1.1//EN" "http://www.w3.org/Graphics/SVG/1.1/DTD/svg11.dtd"><svg t="1592469570380" class="icon" viewBox="0 0 1024 1024" version="1.1" xmlns="http://www.w3.org/2000/svg" p-id="4455" width="64" height="64" xmlns:xlink="http://www.w3.org/1999/xlink"><defs><style type="text/css"></style></defs><path d="M899.440673 1023.443932 124.559327 1023.443932C63.137677 1023.443932 13.345642 973.651897 13.345642 912.230247L13.345642 111.769753C13.345642 50.348103 63.137677 0.556068 124.559327 0.556068L899.440673 0.556068C960.862323 0.556068 1010.654358 50.348103 1010.654358 111.769753L1010.654358 912.230247C1010.654358 973.651897 960.862323 1023.443932 899.440673 1023.443932ZM787.392886 60.611458 237.997285 60.611458 237.997285 411.212598 787.392886 411.212598 787.392886 60.611458ZM952.267173 102.31659C952.267173 79.283402 933.59523 60.611458 910.562042 60.611458L825.761607 60.611458 825.761607 411.212598 825.761607 449.58132 825.761607 450.971491 787.392886 450.971491 787.392886 449.58132 237.997285 449.58132 237.997285 450.971491 199.628564 450.971491 199.628564 60.611458 113.715992 60.611458C90.682804 60.611458 72.010861 79.283402 72.010861 102.31659L72.010861 921.68341C72.010861 944.716598 90.682804 963.388542 113.715992 963.388542L910.562042 963.388542C933.59523 963.388542 952.267173 944.716598 952.267173 921.68341L952.267173 102.31659ZM639.478686 161.537877 677.013304 161.537877 677.013304 161.259843 715.382026 161.259843 715.382026 359.220201 712.323649 359.220201 677.013304 359.220201 639.478686 359.220201 605.558512 359.220201 601.109965 359.220201 601.109965 161.259843 639.478686 161.259843 639.478686 161.537877ZM639.478686 320.85148 677.013304 320.85148 677.013304 199.906598 639.478686 199.906598 639.478686 320.85148Z" p-id="4456" fill="#ffffff"></path></svg>